<?xml version="1.0" encoding="UTF-8"?>
<svg id="Layer_2" xmlns="http://www.w3.org/2000/svg" viewBox="0 0 828.38 229.62">
  <defs>
    <style>
      .cls-1 {
        fill: #373a36;
      }

      .cls-2 {
        fill: #fff;
      }

      .cls-3 {
        fill: none;
      }

      .cls-4 {
        fill: #c8102e;
      }
    </style>
  </defs>
  <g id="Layer_2-2" data-name="Layer_2">
    <g>
      <path class="cls-4" d="M0,0l30.93,37.82L11.28,123.68c-3.46,11.93-1.58,23.95,5.19,33.04,6.47,8.7,16.79,13.68,28.31,13.68,0,0,705.29,0,705.29,0,23.41,0,45.29-18.92,48.99-42.28,1.22-5.35,29.32-128.12,29.32-128.12H0Z"/>
      <polygon class="cls-2" points="294.4 11.24 258.37 158.89 212.19 158.89 242.47 34.8 223.48 11.24 294.4 11.24"/>
      <path class="cls-2" d="M418.18,11.24h-53.79l-42.7,57.13h-31.49l-9.4,39.15h31.34l38.98,51.49h55.99l-50.95-65.53,62.02-82.23Z"/>
      <path class="cls-2" d="M619.48,47.69c2.01-10.25,2.86-20.31-.99-25.61-5.61-8.27-13.8-10.52-28.19-10.84-36.25-.05-122.37-.04-157.69,0l29.99,36.45h112.95l-4.9,22.61h-115.02l-19.61,88.7h43.94l11.53-52.48h77.88c23.22-.02,38.23-9.02,43.79-30.95h0s6.3-27.87,6.3-27.87Z"/>
      <path class="cls-3" d="M137.54,124.35c5.67-25.26,19.86-88.45,25.39-113.1h-70.22l-25.39,113.1h70.22Z"/>
      <path class="cls-2" d="M162.93,11.25c-5.54,24.65-19.72,87.84-25.39,113.1h-70.22L92.71,11.25H23.98l19.22,23.51-20.97,91.6c-5.2,17.36,5.33,32.73,22.88,32.53h98.68c17.84.02,35.23-15.08,37.89-33.08.32-1.41,24.44-106.76,26.22-114.56h-44.98Z"/>
      <path class="cls-2" d="M769.18,11.25c-5.54,24.65-19.72,87.84-25.39,113.1h-70.22l25.39-113.1h-68.72l19.22,23.51-20.97,91.6c-5.2,17.36,5.33,32.73,22.88,32.53h98.68c17.84.02,35.23-15.08,37.89-33.08.32-1.41,24.44-106.76,26.22-114.56h-44.98Z"/>
      <g>
        <path class="cls-1" d="M7.11,220.29v-37.35h9.6v36.55c0,1,.33,1.33,1.33,1.33h13.07c1,0,1.33-.33,1.33-1.33v-36.55h9.6v37.35c0,6.34-3,9.34-9.34,9.34h-16.27c-6.34,0-9.34-3-9.34-9.34Z"/>
        <path class="cls-1" d="M78.04,229.62l-11-20.21-6.8,8.6v11.61h-9.47v-46.69h9.47v21.88l16.61-21.88h11.27l-14.61,18.41,15.34,28.28h-10.8Z"/>
        <path class="cls-1" d="M110.73,182.94h24.68c6.34,0,9.34,3,9.34,9.34v12.4c0,6.34-3,9.34-9.34,9.34h-15.07v15.61h-9.6v-46.69ZM133.8,205.21c1,0,1.33-.33,1.33-1.33v-10.8c0-1-.33-1.33-1.33-1.33h-13.47v13.47h13.47Z"/>
        <path class="cls-1" d="M151.65,220.29v-28.01c0-6.34,3-9.34,9.34-9.34h17.14c6.34,0,9.34,3,9.34,9.34v28.01c0,6.34-3,9.34-9.34,9.34h-17.14c-6.34,0-9.34-3-9.34-9.34ZM176.53,220.82c1,0,1.33-.33,1.33-1.33v-26.41c0-1-.33-1.33-1.33-1.33h-13.94c-1,0-1.33.33-1.33,1.33v26.41c0,1,.33,1.33,1.33,1.33h13.94Z"/>
        <path class="cls-1" d="M192.98,182.94h10l7.27,34.28,8.6-34.28h8.14l8.6,34.28,7.27-34.28h9.6l-11.74,46.69h-10.14l-7.67-30.41-7.67,30.41h-10.6l-11.67-46.69Z"/>
        <path class="cls-1" d="M259.39,182.94h31.41v8.8h-21.81v9.67h17.67v8.67h-17.67v10.74h21.81v8.8h-31.41v-46.69Z"/>
        <path class="cls-1" d="M334,229.62h-10.34l-7.74-16.47h-7.74v16.47h-9.6v-46.69h24.61c6.34,0,9.34,3,9.34,9.34v11.27c0,5.27-2.07,8.27-6.47,9.07l7.94,17.01ZM321.6,204.61c1,0,1.33-.33,1.33-1.33v-10.34c0-1-.33-1.33-1.33-1.33h-13.41v13h13.41Z"/>
        <path class="cls-1" d="M341.56,182.94h9.6v37.88h20.14v8.8h-29.75v-46.69Z"/>
        <path class="cls-1" d="M378.51,182.94h9.6v46.69h-9.6v-46.69Z"/>
        <path class="cls-1" d="M396.92,182.94h31.41v8.8h-21.81v10.07h17.67v8.67h-17.67v19.14h-9.6v-46.69Z"/>
        <path class="cls-1" d="M446.47,191.61h-12.67v-8.67h34.95v8.67h-12.67v38.02h-9.6v-38.02Z"/>
        <path class="cls-1" d="M475.79,182.94h9.6v46.69h-9.6v-46.69Z"/>
        <path class="cls-1" d="M494.2,182.94h10l17.67,30.08v-30.08h9.34v46.69h-9.34l-18.34-31.15v31.15h-9.34v-46.69Z"/>
        <path class="cls-1" d="M539.55,220.29v-28.01c0-6.34,3-9.34,9.34-9.34h16.07c6.34,0,9.34,3,9.34,9.34v6.14h-9.6v-5.34c0-1-.33-1.33-1.33-1.33h-12.87c-1,0-1.33.33-1.33,1.33v26.41c0,1,.33,1.33,1.33,1.33h12.87c1,0,1.33-.33,1.33-1.33v-7.2h-8.8v-8.4h18.41v16.41c0,6.34-3,9.34-9.34,9.34h-16.07c-6.34,0-9.34-3-9.34-9.34Z"/>
        <path class="cls-1" d="M599.05,220.29v-37.35h9.6v36.55c0,1,.33,1.33,1.33,1.33h13.07c1,0,1.33-.33,1.33-1.33v-36.55h9.6v37.35c0,6.34-3,9.34-9.34,9.34h-16.27c-6.34,0-9.34-3-9.34-9.34Z"/>
        <path class="cls-1" d="M642.7,182.94h10l17.67,30.08v-30.08h9.34v46.69h-9.34l-18.34-31.15v31.15h-9.34v-46.69Z"/>
        <path class="cls-1" d="M688.63,182.94h9.6v46.69h-9.6v-46.69Z"/>
        <path class="cls-1" d="M717.88,191.61h-12.67v-8.67h34.95v8.67h-12.67v38.02h-9.6v-38.02Z"/>
        <path class="cls-1" d="M747.19,182.94h31.41v8.8h-21.81v9.67h17.67v8.67h-17.67v10.74h21.81v8.8h-31.41v-46.69Z"/>
        <path class="cls-1" d="M786.38,182.94h25.54c6.34,0,9.34,3,9.34,9.34v28.01c0,6.34-3,9.34-9.34,9.34h-25.54v-46.69ZM810.33,220.82c1,0,1.33-.33,1.33-1.33v-26.41c0-1-.33-1.33-1.33-1.33h-14.34v29.08h14.34Z"/>
      </g>
    </g>
  </g>
</svg>
