<?xml version="1.0" encoding="UTF-8"?>
<svg id="Layer_2" xmlns="http://www.w3.org/2000/svg" viewBox="0 0 687.78 213">
  <defs>
    <style>
      .cls-1 {
        fill: #fff;
      }

      .cls-2 {
        fill: #002554;
      }
    </style>
  </defs>
  <g id="Layer_2-2" data-name="Layer_2">
    <g>
      <path class="cls-2" d="M0,0l24.99,171.04,78.76-.03,505.5-.11c22.11,0,43.32-16.98,48.28-38.66L687.78.09,0,0Z"/>
      <path class="cls-1" d="M647.24,126.39l-.76,3.32c-3.8,16.58-20.65,29.85-37.23,29.85h-98.94c-16.58,0-27.36-13.27-23.44-30.4l.51-2.21,21-91.75-19.43-23.77h69.11l-25.48,113.5h70.4l16.85-75.05,8.63-38.45h45.1l-23.4,102.25-2.91,12.71Z"/>
      <polygon class="cls-1" points="235.59 11.34 185.97 120.09 173.57 11.34 91.88 11.34 109.38 37.88 73.1 119.88 59.18 11.34 13.12 11.34 34.79 159.7 96.39 159.67 138.73 64.73 150.3 159.7 210.38 159.7 280.76 11.34 235.59 11.34"/>
      <g>
        <path class="cls-1" d="M25.92,183.18h6.39l4.64,21.9,5.5-21.9h5.2l5.5,21.9,4.64-21.9h6.14l-7.5,29.83h-6.48l-4.9-19.43-4.9,19.43h-6.77l-7.46-29.83Z"/>
        <path class="cls-1" d="M67.49,207.04v-17.9c0-4.05,1.92-5.97,5.96-5.97h10.95c4.05,0,5.96,1.92,5.96,5.97v17.9c0,4.05-1.92,5.97-5.96,5.97h-10.95c-4.05,0-5.96-1.92-5.96-5.97ZM83.39,207.38c.64,0,.85-.21.85-.85v-16.87c0-.64-.21-.85-.85-.85h-8.91c-.64,0-.85.21-.85.85v16.87c0,.64.21.85.85.85h8.91Z"/>
        <path class="cls-1" d="M118.32,213h-6.6l-4.94-10.52h-4.94v10.52h-6.14v-29.83h15.72c4.05,0,5.96,1.92,5.96,5.97v7.2c0,3.37-1.32,5.28-4.13,5.79l5.07,10.86ZM110.4,197.03c.64,0,.85-.21.85-.85v-6.6c0-.64-.21-.85-.85-.85h-8.56v8.31h8.56Z"/>
        <path class="cls-1" d="M123.15,183.18h6.14v24.2h12.87v5.62h-19v-29.83Z"/>
        <path class="cls-1" d="M146.75,183.18h16.32c4.05,0,5.96,1.92,5.96,5.97v17.9c0,4.05-1.92,5.97-5.96,5.97h-16.32v-29.83ZM162.05,207.38c.64,0,.85-.21.85-.85v-16.87c0-.64-.21-.85-.85-.85h-9.16v18.58h9.16Z"/>
        <path class="cls-1" d="M185.27,183.18h15.77c4.05,0,5.96,1.92,5.96,5.97v7.92c0,4.05-1.92,5.97-5.96,5.97h-9.63v9.97h-6.14v-29.83ZM200.02,197.41c.64,0,.85-.21.85-.85v-6.9c0-.64-.21-.85-.85-.85h-8.61v8.61h8.61Z"/>
        <path class="cls-1" d="M211.42,207.04v-17.9c0-4.05,1.92-5.97,5.96-5.97h10.95c4.05,0,5.96,1.92,5.96,5.97v17.9c0,4.05-1.92,5.97-5.96,5.97h-10.95c-4.05,0-5.96-1.92-5.96-5.97ZM227.31,207.38c.64,0,.85-.21.85-.85v-16.87c0-.64-.21-.85-.85-.85h-8.91c-.64,0-.85.21-.85.85v16.87c0,.64.21.85.85.85h8.91Z"/>
        <path class="cls-1" d="M237.82,183.18h6.39l4.64,21.9,5.5-21.9h5.2l5.5,21.9,4.64-21.9h6.14l-7.5,29.83h-6.48l-4.9-19.43-4.9,19.43h-6.77l-7.46-29.83Z"/>
        <path class="cls-1" d="M280.25,183.18h20.07v5.62h-13.93v6.18h11.29v5.54h-11.29v6.86h13.93v5.62h-20.07v-29.83Z"/>
        <path class="cls-1" d="M327.91,213h-6.6l-4.94-10.52h-4.94v10.52h-6.14v-29.83h15.72c4.05,0,5.97,1.92,5.97,5.97v7.2c0,3.37-1.32,5.28-4.13,5.79l5.07,10.86ZM319.99,197.03c.64,0,.85-.21.85-.85v-6.6c0-.64-.21-.85-.85-.85h-8.56v8.31h8.56Z"/>
        <path class="cls-1" d="M332.74,183.18h6.14v24.2h12.87v5.62h-19v-29.83Z"/>
        <path class="cls-1" d="M356.34,183.18h6.14v29.83h-6.14v-29.83Z"/>
        <path class="cls-1" d="M368.11,183.18h20.07v5.62h-13.93v6.43h11.29v5.54h-11.29v12.23h-6.14v-29.83Z"/>
        <path class="cls-1" d="M399.76,188.72h-8.09v-5.54h22.33v5.54h-8.1v24.29h-6.14v-24.29Z"/>
        <path class="cls-1" d="M418.49,183.18h6.14v29.83h-6.14v-29.83Z"/>
        <path class="cls-1" d="M430.26,183.18h6.39l11.29,19.22v-19.22h5.96v29.83h-5.96l-11.72-19.9v19.9h-5.97v-29.83Z"/>
        <path class="cls-1" d="M459.23,207.04v-17.9c0-4.05,1.92-5.97,5.96-5.97h10.27c4.05,0,5.96,1.92,5.96,5.97v3.92h-6.14v-3.41c0-.64-.21-.85-.85-.85h-8.22c-.64,0-.85.21-.85.85v16.87c0,.64.21.85.85.85h8.22c.64,0,.85-.21.85-.85v-4.6h-5.62v-5.37h11.76v10.48c0,4.05-1.92,5.97-5.96,5.97h-10.27c-4.05,0-5.96-1.92-5.96-5.97Z"/>
        <path class="cls-1" d="M497.24,207.04v-23.86h6.14v23.35c0,.64.21.85.85.85h8.35c.64,0,.85-.21.85-.85v-23.35h6.14v23.86c0,4.05-1.92,5.97-5.97,5.97h-10.4c-4.05,0-5.97-1.92-5.97-5.97Z"/>
        <path class="cls-1" d="M525.12,183.18h6.39l11.29,19.22v-19.22h5.96v29.83h-5.96l-11.72-19.9v19.9h-5.97v-29.83Z"/>
        <path class="cls-1" d="M554.46,183.18h6.14v29.83h-6.14v-29.83Z"/>
        <path class="cls-1" d="M573.15,188.72h-8.09v-5.54h22.33v5.54h-8.1v24.29h-6.14v-24.29Z"/>
        <path class="cls-1" d="M591.88,183.18h20.07v5.62h-13.93v6.18h11.29v5.54h-11.29v6.86h13.93v5.62h-20.07v-29.83Z"/>
        <path class="cls-1" d="M616.91,183.18h16.32c4.05,0,5.96,1.92,5.96,5.97v17.9c0,4.05-1.92,5.97-5.96,5.97h-16.32v-29.83ZM632.21,207.38c.64,0,.85-.21.85-.85v-16.87c0-.64-.21-.85-.85-.85h-9.16v18.58h9.16Z"/>
      </g>
      <path class="cls-1" d="M479.62,48.03c2.01-10.26,2.87-20.33-.99-25.63-5.61-8.27-13.77-10.54-28.17-10.85-36.29-.05-122.55-.04-157.91,0l30.02,36.49h113.08l-4.9,22.63h-115.15l-19.63,88.79h43.99l11.55-52.54h77.96c23.24-.02,38.27-9.03,43.84-30.98h0s6.3-27.9,6.3-27.9Z"/>
    </g>
  </g>
</svg>