<?xml version="1.0" encoding="UTF-8"?>
<svg id="Layer_2" data-name="Layer 2" xmlns="http://www.w3.org/2000/svg" viewBox="0 0 311.81 58.5">
  <defs>
    <style>
      .cls-1 {
        fill: #fff;
      }
    </style>
  </defs>
  <g id="Layer_1-2" data-name="Layer 1">
    <g>
      <path class="cls-1" d="M216.77,46.39c2.27-.83,4.19-2.03,5.76-3.61,1.57-1.58,2.76-3.49,3.57-5.75.81-2.26,1.22-4.82,1.22-7.68V10.86h-30.4c-2.89,0-5.46.43-7.71,1.29-2.25.86-4.18,2.08-5.76,3.66-1.59,1.58-2.8,3.5-3.62,5.76-.83,2.26-1.24,4.79-1.24,7.58v18.48h30.4c2.92,0,5.51-.41,7.78-1.24ZM187.54,38.91v-9.56c0-1.89.15-3.45.46-4.71.31-1.25.83-2.26,1.56-3.02.73-.76,1.71-1.31,2.94-1.63,1.23-.32,2.77-.49,4.62-.49h21.25v9.66c0,1.92-.16,3.5-.49,4.76-.32,1.25-.86,2.25-1.61,3-.75.75-1.73,1.27-2.94,1.56-1.22.29-2.73.44-4.55.44h-21.25Z"/>
      <path class="cls-1" d="M39.65,47.64c10.7,0,16.26-4.75,16.68-14.24h-8.56c-.49,3.84-2.56,5.75-6.22,5.75h-13.96l27.63-28.29H11.93v8.39h0v1.52h8.82v-1.52h15.01L7.96,47.64h31.69Z"/>
      <path class="cls-1" d="M111.75,38.91h0v-1.52h-8.82v1.52h-28.82v-5.51h31.95v-8.29h-31.47c.52-1.79,1.48-3.17,2.89-4.15,1.41-.98,3.48-1.46,6.2-1.46h19.24v1.51h8.82v-1.52h0v-8.63h-28.26c-2.82,0-5.37.42-7.64,1.27-2.27.85-4.2,2.06-5.79,3.66-1.59,1.59-2.8,3.51-3.65,5.75-.84,2.24-1.26,4.78-1.26,7.61v18.48h46.59v-8.73Z"/>
      <path class="cls-1" d="M129.53,47.64h1.5v-8.85h-1.5v-19.29h31.18c-.29,1.82-.95,3.21-1.97,4.17-1.02.96-2.44,1.44-4.26,1.44h-20.82v8.29h11.14l14.15,14.24h10.8l-13.96-14.39c9.01-.94,13.52-6.06,13.52-15.36v-7.02h-48.73v36.77h8.95Z"/>
      <path class="cls-1" d="M244.19,0H0v58.5h311.81V0h-67.62ZM236.14,55.38H3.11V3.12h233.03v52.26ZM302.99,30.81c0,2.5-.45,4.78-1.34,6.83-.89,2.05-2.14,3.82-3.75,5.32-1.61,1.5-3.54,2.65-5.79,3.46-2.26.81-4.75,1.22-7.47,1.22h-39.67V10.86h8.95v28.04h14.98v-22.34h8.95v22.34h6.77c6.28,0,9.42-3.2,9.42-9.61v-9.59h-1.5v-8.85h1.5s8.95,0,8.95,0v19.95Z"/>
    </g>
  </g>
</svg>