<?xml version="1.0" encoding="UTF-8"?>
<svg id="Layer_2" data-name="Layer 2" xmlns="http://www.w3.org/2000/svg" viewBox="0 0 841.89 182">
  <defs>
    <style>
      .cls-1 {
        fill: none;
      }

      .cls-1, .cls-2 {
        stroke-width: 0px;
      }

      .cls-2 {
        fill: #9f8170;
      }
    </style>
  </defs>
  <g id="Layer_1-2" data-name="Layer 1">
    <g>
      <g>
        <path class="cls-2" d="M579.59,136.73c5.92-2.16,10.92-5.3,15.02-9.41,4.1-4.11,7.2-9.11,9.32-15,2.11-5.89,3.17-12.56,3.17-20.02v-48.18h-79.24c-7.52,0-14.22,1.12-20.09,3.37-5.88,2.25-10.88,5.43-15.02,9.53-4.14,4.11-7.29,9.11-9.44,15-2.16,5.89-3.23,12.48-3.23,19.77v48.18h79.24c7.61,0,14.37-1.08,20.28-3.24ZM503.4,117.21v-24.92c0-4.91.4-9,1.2-12.27.8-3.26,2.16-5.89,4.06-7.88,1.9-1.99,4.46-3.41,7.67-4.26,3.21-.85,7.23-1.27,12.04-1.27h55.4v25.17c0,5-.42,9.13-1.27,12.4-.85,3.26-2.24,5.87-4.18,7.82-1.94,1.95-4.5,3.3-7.67,4.07-3.17.76-7.12,1.14-11.85,1.14h-55.4Z"/>
        <path class="cls-2" d="M117.91,139.97c27.89,0,42.39-12.37,43.48-37.12h-22.31c-1.27,10-6.68,15-16.23,15h-36.39l72.01-73.74H45.64v21.87h0v3.95h23v-3.95h39.12l-72.47,73.99h82.61Z"/>
        <path class="cls-2" d="M305.84,117.21h0v-3.95h-23v3.95h-75.13v-14.37h83.29v-21.61h-82.02c1.35-4.66,3.87-8.26,7.54-10.81,3.68-2.54,9.06-3.81,16.16-3.81h50.17v3.94h23v-3.95h-.01v-22.49h-73.66c-7.35,0-13.99,1.1-19.9,3.31-5.92,2.21-10.95,5.38-15.09,9.53-4.14,4.15-7.31,9.15-9.51,15-2.2,5.85-3.3,12.46-3.3,19.83v48.18h121.45v-22.76Z"/>
        <path class="cls-2" d="M352.18,139.97h3.92v-23.06h-3.92v-50.29h81.26c-.76,4.75-2.47,8.37-5.13,10.87-2.66,2.5-6.36,3.75-11.09,3.75h-54.26v21.61h29.03l36.89,37.12h28.14l-36.38-37.5c23.5-2.46,35.24-15.81,35.24-40.05v-18.31h-127.03v95.86h23.33Z"/>
        <path class="cls-2" d="M651.09,15.8H14.54v152.49h812.8V15.8h-176.26ZM630.1,160.15H22.66V23.93h607.44v136.22ZM804.35,96.11c0,6.53-1.17,12.46-3.49,17.8-2.33,5.34-5.58,9.96-9.77,13.86-4.19,3.9-9.22,6.91-15.1,9.03-5.88,2.12-12.37,3.18-19.48,3.18h-103.41V44.11h23.33v73.1h39.05v-58.23h23.33v58.23h17.65c16.38,0,24.56-8.35,24.56-25.04v-24.99h-3.92v-23.06h3.92s23.33,0,23.33,0v52Z"/>
      </g>
      <rect class="cls-1" width="841.89" height="182"/>
    </g>
  </g>
</svg>
